<svg version="1.1" xmlns="http://www.w3.org/2000/svg" width="1024" height="1024">
  <path d="M 0 0 C -3.513 -7.679 -3.513 -7.679 -9 -14 C -9 -14.66 -9 -15.32 -9 -16 C 11.904 -17.689 32.858 -8.945 49 4 C 51.75 6.5 51.75 6.5 54 9 C 54.48 9.499 54.959 9.998 55.453 10.512 C 59.242 14.616 61.62 18.881 63.922 23.961 C 64.83 26.158 64.83 26.158 67 27 C 69.103 27.106 71.208 27.184 73.313 27.25 C 85.836 28.108 95.503 32.978 105 41 C 106.41 42.187 106.41 42.187 107.848 43.398 C 116.97 51.755 123.801 62.496 125 75 C 125.804 75.021 126.609 75.041 127.438 75.063 C 136.062 77.332 142.323 84.71 147 92 C 148.173 94.281 149.2 96.563 150.16 98.941 C 151.048 101.222 151.048 101.222 152.688 104.125 C 154.22 107.482 154.527 110.336 155 114 C 155.487 115.858 155.989 117.711 156.5 119.563 C 161.37 138.97 158.185 158.467 152.297 177.242 C 151.16 181.156 151.051 184.398 151.285 188.406 C 151.334 197.461 148.847 205.861 146.465 214.541 C 145.684 217.386 144.927 220.237 144.174 223.09 C 143.684 224.922 143.192 226.754 142.699 228.586 C 142.474 229.428 142.249 230.27 142.017 231.137 C 140.687 235.962 139.082 240.447 137 245 C 137.664 245.413 138.328 245.825 139.012 246.25 C 147.882 252.051 152.194 257.745 154.496 268.152 C 158.231 296.67 151.711 328.397 134.688 351.938 C 128.641 359.129 121.264 365.759 112 368 C 107.432 368.387 103.43 368.154 99 367 C 98.789 367.855 98.578 368.711 98.361 369.592 C 85.476 421.524 85.476 421.524 67 440 C 66.647 442.049 66.647 442.049 66.63 444.43 C 66.601 445.349 66.572 446.267 66.543 447.213 C 66.525 448.209 66.507 449.205 66.488 450.23 C 66.47 451.254 66.451 452.278 66.432 453.333 C 66.4 455.504 66.374 457.675 66.355 459.847 C 66.327 462.065 66.279 464.284 66.211 466.501 C 66.114 469.704 66.076 472.902 66.051 476.105 C 65.991 477.584 65.991 477.584 65.929 479.092 C 65.955 483.3 66.014 485.931 68.943 489.106 C 71.288 490.973 71.288 490.973 73.717 492.504 C 80.919 497.223 84.771 504.816 88.844 512.156 C 97.192 527.158 106.955 540.619 118.5 553.313 C 119.005 553.87 119.509 554.428 120.029 555.003 C 122.328 557.475 123.744 558.915 127 560 C 127.33 558.68 129.616 563.266 133.125 564.438 C 134.074 564.623 136 566.32 136 567 C 136.859 567.268 137.717 567.537 138.602 567.813 C 142.003 569.001 145.133 570.416 148.371 571.992 C 149.658 572.612 150.946 573.232 152.233 573.851 C 152.916 574.18 153.598 574.509 154.301 574.848 C 176.137 585.348 198.457 594.704 220.797 604.069 C 222.835 604.93 224.864 605.808 226.892 606.69 C 231.252 608.528 245.457 615.255 246.207 615.387 C 248.872 615.972 251.172 616.769 253.688 617.813 C 254.551 618.166 255.415 618.519 256.305 618.883 C 258.102 619.628 259.898 620.372 261.695 621.117 C 262.559 621.47 263.423 621.824 264.313 622.188 C 265.092 622.511 265.872 622.835 266.676 623.168 C 269 624.065 269 624.065 271.524 624.495 C 282.585 626.752 293.998 634.648 303.25 640.875 C 303.935 641.327 304.62 641.778 305.325 642.244 C 307.203 643.555 307.203 643.555 310 646 C 309.399 646.819 311.718 648.489 314.422 650.215 C 329.784 656.301 339.874 683.47 346.218 697.74 C 351.009 709.096 354.629 720.748 357.762 732.656 C 357.93 733.291 358.098 733.926 358.271 734.581 C 362.341 749.968 366.001 765.451 369.617 780.95 C 370.295 783.854 370.98 786.757 371.664 789.659 C 375.037 803.977 378.345 818.31 381.492 832.68 C 381.748 833.826 382.004 834.972 382.268 836.153 C 385.176 849.631 385.176 849.631 382.688 854.645 C 378.618 858.211 374.025 859.793 369 861.688 C 367.891 862.117 366.783 862.546 365.64 862.989 C 362.101 864.348 358.553 865.679 355 867 C 353.889 867.414 352.778 867.829 351.633 868.256 C 290.866 890.763 228.795 905.049 165 916 C 164.219 916.134 163.439 916.269 162.634 916.407 C 141.234 920.059 119.662 922.126 98.063 924.188 C 97.393 924.251 96.723 924.315 96.033 924.381 C 86.36 925.304 76.682 926.176 67 927 C 65.845 927.099 64.691 927.198 63.501 927.299 C 30.233 930.083 -3.136 930.211 -36.5 930.188 C -37.37 930.187 -38.239 930.187 -39.135 930.187 C -66.468 930.176 -93.724 929.931 -121 928 C -122.417 927.902 -122.417 927.902 -123.862 927.801 C -211.957 921.661 -300.323 909.032 -452.75 859.5 C -453.465 859.186 -454.18 858.872 -454.916 858.548 C -461.521 855.517 -461.521 855.517 -463 853 C -463.228 847.465 -462.722 842.335 -461.672 836.895 C -461.455 835.73 -461.455 835.73 -461.233 834.541 C -460.748 831.963 -460.25 829.388 -459.75 826.813 C -459.577 825.913 -459.405 825.014 -459.227 824.088 C -434.389 695.25 -434.389 695.25 -406.437 663.813 C -403.673 661.242 -397.409 652.558 -394 650 C -392.853 649.116 -391.706 648.232 -390.559 647.348 C -381.818 640.693 -372.729 635.09 -363 630 C -362.408 629.681 -361.816 629.363 -361.207 629.035 C -357.393 627.041 -353.533 625.406 -349.504 623.895 C -338.829 619.865 -328.406 615.221 -317.937 610.688 C -316.813 610.202 -315.689 609.716 -314.531 609.215 C -267.057 589.374 -267.057 589.374 -221.348 565.91 C -219.163 564.664 -216.941 563.48 -214.684 562.371 C -211.935 561.141 -211.935 561.141 -210 559 C -209.25 558.288 -208.5 557.577 -207.727 556.844 C -204.608 553.591 -202.005 550.149 -199.375 546.5 C -198.898 545.849 -198.421 545.198 -197.93 544.527 C -195.906 541.745 -194.009 539.016 -192.289 536.031 C -191.864 535.361 -183.357 521.972 -180.75 517.125 C -179.909 515.53 -179.909 515.53 -179.051 513.902 C -174.743 505.894 -170.525 499.307 -162.875 494.188 C -162.047 493.624 -161.22 493.061 -160.367 492.48 C -158.285 491.178 -156.202 490.079 -154 489 C -153.796 482.169 -153.657 475.338 -153.561 468.504 C -153.52 466.182 -153.466 463.86 -153.396 461.539 C -153.299 458.192 -153.254 454.848 -153.219 451.5 C -153.177 450.469 -153.136 449.439 -153.094 448.377 C -153.09 442.588 -153.755 439.601 -157.92 435.432 C -159.268 434.274 -160.627 433.128 -162 432 C -177.668 413.755 -181.108 387.652 -186 365 C -186.591 365.085 -187.182 365.169 -187.791 365.256 C -196.028 366.324 -202.326 365.191 -209.187 360.25 C -210.476 359.188 -211.748 358.105 -213 357 C -213.584 356.509 -214.168 356.018 -214.77 355.512 C -227.891 343.575 -234.253 324.843 -238 308 C -238.178 307.203 -238.356 306.406 -238.54 305.585 C -240.079 298.061 -240.367 290.728 -240.375 283.063 C -240.399 281.877 -240.424 280.692 -240.449 279.471 C -240.484 268.928 -238.55 259.022 -231.715 250.691 C -228.101 247.126 -224.184 244 -219 244 C -219.31 242.903 -219.31 242.903 -219.627 241.784 C -220.566 238.461 -221.502 235.137 -222.437 231.813 C -222.763 230.662 -223.088 229.512 -223.424 228.326 C -223.736 227.214 -224.049 226.103 -224.371 224.957 C -224.659 223.936 -224.947 222.915 -225.244 221.863 C -226 219 -226 219 -226.477 216.315 C -226.913 213.743 -230.937 196.811 -230.905 196.199 C -230.779 193.467 -230.702 190.734 -230.625 188 C -230.575 187.065 -230.524 186.131 -230.473 185.168 C -230.34 178.854 -231.328 175.463 -235.603 170.754 C -237.142 168.822 -239.32 164.34 -240 164 C -240.598 161.566 -240.598 161.566 -241.062 158.563 C -241.624 154.651 -241.624 154.651 -243 151 C -243.083 149.625 -243.071 142.742 -243.062 141.875 C -243.058 141.026 -241.799 131.644 -241.695 130.945 C -240.117 123.139 -236.99 119.34 -230.984 114.191 C -228.763 112.236 -228.763 112.236 -229.02 109.926 C -230.432 107.151 -232.381 105.202 -234.527 102.977 C -239.424 96.405 -238.658 87.762 -238 80 C -236.59 74.245 -235.02 70.333 -230 67 C -229.443 68.887 -229.443 68.887 -228.875 70.813 C -227.686 73.903 -227.102 74.918 -224.437 77.063 C -218.885 78.577 -213.798 78.376 -208.578 75.809 C -206.652 74.61 -204.808 73.369 -203 72 C -203.351 71.072 -203.701 70.144 -204.062 69.188 C -206.543 60.4 -203.943 49.875 -199.937 41.879 C -190.066 25.221 -172.843 16.116 -155 10 C -151.5 9.813 -151.5 9.813 -149 10 C -149.489 12.773 -150.102 15.283 -151.062 17.938 C -152.077 21.251 -152.534 23.566 -152 27 C -149.529 28.696 -149.529 28.696 -147 30 C -146.082 29.385 -145.164 28.77 -144.219 28.137 C -134.943 21.994 -127.353 17.762 -116 17 C -115.792 16.31 -115.585 15.621 -115.371 14.91 C -111.299 2.488 -104.109 -5.151 -93 -12 C -61.601 -26.768 -29.053 -13.929 0 0 Z" fill="#10181D" transform="translate(545,71)"></path>
  <path d="M0 0 C0.84175781 0.42667969 1.68351563 0.85335937 2.55078125 1.29296875 C40.27203663 20.33128038 78.98502581 36.798025 118.10546875 52.7109375 C159.92779904 69.73412857 195.27643089 86.45680076 213.94384766 130.36328125 C216.02268917 135.55317683 217.83984655 140.82807545 219.625 146.125 C219.97296631 147.15318848 220.32093262 148.18137695 220.67944336 149.24072266 C228.55464342 173.34188282 233.71530731 198.35738765 239.47973633 223.02246094 C240.70515509 228.26400307 241.94088464 233.50306037 243.17882442 238.74165726 C244.13556442 242.79802661 245.08513719 246.85604852 246.03268623 250.91457367 C246.4857718 252.84973972 246.94152629 254.78428292 247.40000725 256.7181778 C248.03459212 259.39797716 248.6590647 262.07993781 249.28100586 264.76269531 C249.47154037 265.55734192 249.66207489 266.35198853 249.85838318 267.17071533 C251.11414324 272.65757027 251.11414324 272.65757027 250 276 C247.33666992 277.34350586 247.33666992 277.34350586 243.73046875 278.71484375 C243.07533295 278.96656342 242.42019714 279.21828308 241.74520874 279.47763062 C239.56394439 280.31045618 237.37632841 281.12477955 235.1875 281.9375 C233.65289326 282.51516456 232.11830699 283.09288353 230.58374023 283.6706543 C149.48915738 314 149.48915738 314 131 314 C130.81462549 308.3942935 131.50576296 303.27818954 132.546875 297.77734375 C132.71382874 296.86907333 132.88078247 295.96080292 133.05279541 295.02500916 C133.61201656 291.99459171 134.18076718 288.96605166 134.75 285.9375 C135.15260301 283.77169531 135.55494022 281.6058412 135.95703125 279.43994141 C140.43883686 255.38315238 145.12394075 231.36485423 149.79760742 207.34477234 C152.30627989 194.44287375 154.78209694 181.53475048 157.25 168.625 C157.44480957 167.60629822 157.63961914 166.58759644 157.84033203 165.5380249 C158.89444087 160.02551895 159.94770079 154.51285168 161 149 C159.2734371 154.11918775 157.59115418 159.24169429 156.0546875 164.421875 C155.52959595 166.18446655 155.52959595 166.18446655 154.99389648 167.98266602 C154.62466064 169.22588623 154.2554248 170.46910645 153.875 171.75 C151.16554171 180.84983092 148.41021445 189.93160069 145.56054688 198.98876953 C133.35304123 237.83517555 124.70393124 276.8903517 118 317 C113.35649748 318.6574838 108.69020635 319.79068991 103.8671875 320.76953125 C103.0866803 320.93068924 102.3061731 321.09184723 101.50201416 321.25788879 C98.96060309 321.78074835 96.41797737 322.2973153 93.875 322.8125 C92.99809509 322.99085388 92.12119019 323.16920776 91.2177124 323.35296631 C75.85175859 326.4741156 60.47826614 329.48298459 45 332 C43.94791351 332.17178772 43.94791351 332.17178772 42.87457275 332.3470459 C-12.39689716 341.3359729 -68.50921661 346.14966223 -124.5078125 346.16796875 C-126.8935447 346.1711994 -129.27927671 346.17456466 -131.66500854 346.17805481 C-136.63491269 346.18398784 -141.60479961 346.18590095 -146.57470703 346.18530273 C-151.58320757 346.1852218 -156.591616 346.19212169 -161.60009766 346.20581055 C-190.79996526 346.28431265 -219.86556637 346.05485221 -249 344 C-250.17763916 343.91958466 -251.35527832 343.83916931 -252.56860352 343.75631714 C-259.53067015 343.2752395 -266.48469629 342.72434864 -273.4375 342.125 C-274.44373413 342.0397406 -275.44996826 341.9544812 -276.48669434 341.86663818 C-292.34585594 340.51580595 -308.10545579 338.80992489 -323.86669922 336.57275391 C-327.67488699 336.03815964 -331.48798866 335.54733397 -335.30274963 335.06214905 C-356.40488196 332.37781071 -377.37673233 329.21420337 -398.3125 325.4375 C-399.33501862 325.25385895 -400.35753723 325.0702179 -401.41104126 324.88101196 C-407.29123992 323.81960533 -413.15910843 322.7070595 -419.02301025 321.55926514 C-422.17059983 320.96795067 -425.32569969 320.44601041 -428.48583984 319.92626953 C-430.58846116 319.54725517 -432.69084592 319.16692565 -434.79296875 318.78515625 C-435.77348709 318.63928574 -436.75400543 318.49341522 -437.76423645 318.34312439 C-440.4584233 317.82626583 -442.5952886 317.32312268 -445 316 C-446.85948828 313.14930822 -447.43896966 310.32626173 -448 307 C-448.41596436 305.07389893 -448.41596436 305.07389893 -448.84033203 303.10888672 C-449.06060059 301.81225098 -449.28086914 300.51561523 -449.5078125 299.1796875 C-449.76908874 297.68140063 -450.03082871 296.18319457 -450.29296875 294.68505859 C-450.42751465 293.90378601 -450.56206055 293.12251343 -450.70068359 292.31756592 C-455.94853834 262.10843198 -463.05698699 232.57976766 -471.5625 203.125 C-472.02644165 201.51803253 -472.02644165 201.51803253 -472.49975586 199.87860107 C-477.05603527 184.16221755 -481.94180923 168.56164104 -487 153 C-486.76623909 154.24400322 -486.76623909 154.24400322 -486.52775574 155.51313782 C-485.14111578 162.89312068 -483.75729947 170.27362882 -482.37553406 177.65452576 C-481.62052008 181.6874891 -480.86496674 185.72034923 -480.10791016 189.75292969 C-475.83874421 212.50009535 -471.66424199 235.26393245 -467.55270004 258.04007339 C-467.19222696 260.03632275 -466.83134251 262.03249737 -466.47036743 264.02865601 C-462.14633523 287.95632176 -462.14633523 287.95632176 -460.17578125 299.49609375 C-460.05252975 300.20194107 -459.92927826 300.90778839 -459.80229187 301.63502502 C-459.21592398 305.12830433 -458.87181485 308.45723511 -459 312 C-498.09830028 303.75869161 -537.32559634 290.80813685 -574 275 C-568.01054836 240.44135097 -560.72213115 205.97299616 -552 172 C-551.69384766 170.78731445 -551.38769531 169.57462891 -551.07226562 168.32519531 C-546.98587004 152.25728893 -542.3507411 136.89483935 -535 122 C-534.63793457 121.26475098 -534.27586914 120.52950195 -533.90283203 119.77197266 C-528.83302385 109.69843468 -522.63850339 101.26920551 -515 93 C-514.38382813 92.31421875 -513.76765625 91.6284375 -513.1328125 90.921875 C-497.48718329 74.30307268 -474.41830103 65.52474659 -453.71392822 57.03414917 C-393.48626496 33.30732604 -393.48626496 33.30732604 -336.33227539 3.34838867 C-334 2 -334 2 -332 2 C-331.90501221 2.65669678 -331.81002441 3.31339355 -331.7121582 3.98999023 C-324.74638065 66.30342304 -324.74638065 66.30342304 -295 119 C-284.22801434 119.86175885 -274.22196535 108.78209351 -266.56347656 102.3515625 C-261.82715847 98.40919369 -257.00138333 94.73333015 -251.875 91.3125 C-250.98893066 90.71634888 -250.98893066 90.71634888 -250.08496094 90.1081543 C-243.25860093 85.65782551 -237.21879752 82.88450018 -229 84 C-210.43539152 88.13993373 -196.44902881 101.66242618 -182.97265625 114.24609375 C-179.73122552 117.26588819 -176.39682256 120.15614855 -173 123 C-174.4179422 126.13070406 -176.16197287 128.50609017 -178.375 131.125 C-186.73227564 141.75837358 -188.00702706 154.71624557 -189.125 167.8125 C-189.20919189 168.79009277 -189.29338379 169.76768555 -189.38012695 170.77490234 C-189.94275226 177.89464918 -190.18150354 184.98381283 -190.1875 192.125 C-190.1887085 193.5013562 -190.1887085 193.5013562 -190.18994141 194.90551758 C-190.15488525 199.05733485 -190.04934671 202.95371908 -189 207 C-187.02 207 -185.04 207 -183 207 C-182.77947991 203.61323515 -182.55944553 200.22643999 -182.34008789 196.83959961 C-182.15466187 193.97702607 -181.96741373 191.11457908 -181.77905273 188.25219727 C-181.34718128 181.6530269 -180.93984451 175.05645089 -180.65527344 168.44897461 C-179.86368836 151.28616031 -175.93217662 140.31617043 -163.75 128.25 C-163.06252686 127.56607178 -162.37505371 126.88214355 -161.66674805 126.17749023 C-154.70403923 119.43092219 -147.0657924 113.84901757 -139.06298828 108.40917969 C-137.17854413 107.12195938 -135.31794933 105.80833267 -133.46484375 104.4765625 C-125.91647629 99.10190475 -118.14458406 94.39470248 -110 90 C-109.19949219 89.54238281 -108.39898438 89.08476563 -107.57421875 88.61328125 C-100.65216924 85.00672895 -93.0222808 84.64603088 -85.5078125 86.671875 C-78.2138591 89.86451453 -72.2389905 95.51598886 -66.17578125 100.56640625 C-62.20739533 103.8584154 -58.146709 106.99893772 -54 110.0625 C-53.41387939 110.50287598 -52.82775879 110.94325195 -52.22387695 111.39697266 C-47.2944458 115.00904981 -42.03338991 118.63599321 -35.875 119.375 C-30.98127649 117.03452354 -29.37820533 112.71056574 -27 108 C-26.39285156 106.85789062 -25.78570313 105.71578125 -25.16015625 104.5390625 C-18.38915739 91.3415542 -14.20981239 77.17689998 -10 63 C-9.65195313 61.83452637 -9.65195313 61.83452637 -9.296875 60.64550781 C-3.61367567 41.16711011 -0.29867722 20.2828987 0 0 Z " fill="#ED473E" transform="translate(667,643)"></path>
  <path d="M0 0 C0.61488281 0.42152344 1.22976563 0.84304687 1.86328125 1.27734375 C2.67152344 1.82519531 3.47976563 2.37304688 4.3125 2.9375 C5.11300781 3.48277344 5.91351563 4.02804688 6.73828125 4.58984375 C12.70780718 8.31177615 20.49419603 8.01779577 27.19189453 6.50488281 C29.51474016 5.87133425 31.82069704 5.19791591 34.125 4.5 C42.25113994 2.05714136 49.19352514 0.45506165 57.5 3.125 C61.011896 7.1636804 61.24408413 11.20045098 62.17578125 16.38671875 C64.16834076 25.12187298 69.5711756 32.09722476 77 37 C84.07166227 40.80113906 89.98064705 42.66827941 98 42 C97.67 41.34 97.34 40.68 97 40 C96.74202425 36.04437178 96.90559811 33.40340307 99 30 C99.66 30 100.32 30 101 30 C102.43522113 31.78658233 103.79781206 33.63176332 105.125 35.5 C112.69154393 45.86942044 121.2592728 54.57497017 134 58 C135.74810062 58.23000457 137.50158144 58.42188698 139.2578125 58.578125 C140.14871582 58.6596582 141.03961914 58.74119141 141.95751953 58.82519531 C142.63153809 58.88288086 143.30555664 58.94056641 144 59 C143.98428955 59.76965088 143.9685791 60.53930176 143.95239258 61.33227539 C143.63985143 78.97040955 143.86716933 94.43699741 150.1328125 111.12109375 C152.42303885 118.72423259 152.20101644 126.72346293 152.31640625 134.59375 C152.3475779 136.37465027 152.3475779 136.37465027 152.37937927 138.19152832 C152.44443855 141.96096352 152.5035559 145.73046471 152.5625 149.5 C152.60572675 152.06511082 152.64934233 154.63021512 152.69335938 157.1953125 C152.80007491 163.46347317 152.90192004 169.73169857 153 176 C156.27437104 174.62423134 156.84594686 174.37379151 158.2734375 170.91015625 C158.65182239 169.63086294 159.01838205 168.34803107 159.375 167.0625 C162.43109913 157.07421518 166.72733378 148.60324195 174 141 C176.90295805 139.54852097 178.77261779 139.62760975 182 140 C187.29672772 143.323437 189.51375853 146.8989697 191 153 C191.44882607 157.23636476 191.47545483 161.43023349 191.4375 165.6875 C191.42614014 167.47184448 191.42614014 167.47184448 191.41455078 169.29223633 C190.95123717 194.53944632 184.28367158 218.84486038 166 237 C162.39959424 240.44554959 159.30450742 242.2826038 154.25 242.4375 C150.83719374 242.33607044 149.99450437 241.99633624 147 240 C145.99740493 236.99221479 145.69685358 234.46179353 145.4375 231.3125 C145.31181641 229.82169922 145.31181641 229.82169922 145.18359375 228.30078125 C145.12300781 227.54152344 145.06242187 226.78226563 145 226 C142.02716262 227.70654305 141.09126589 228.74782651 139.90673828 232.02075195 C139.63071777 233.24753662 139.35469727 234.47432129 139.0703125 235.73828125 C138.91467331 236.40730469 138.75903412 237.07632813 138.59867859 237.765625 C138.26649049 239.2003383 137.94121689 240.63666691 137.6222229 242.07437134 C136.95370498 245.08354311 136.24980856 248.08406218 135.54750061 251.085495 C135.19550806 252.59105384 134.84519647 254.09700667 134.49656677 255.60334778 C124.28089331 299.69464723 99.21397052 333.74668122 62 360 C61.42975098 360.40927734 60.85950195 360.81855469 60.27197266 361.24023438 C43.84531229 372.90229362 26.68553565 376.37781806 6.74414062 376.31567383 C4.63358829 376.31251286 2.5244433 376.33608785 0.4140625 376.36132812 C-31.30533775 376.50937182 -54.93537703 360.36733332 -77 339 C-77.85368164 338.1735498 -78.70736328 337.34709961 -79.58691406 336.49560547 C-102.53587992 314.2005822 -118.88074937 294.29418769 -126.0625 262.375 C-126.40821571 260.87045862 -126.75457478 259.36606493 -127.1015625 257.86181641 C-129.53388282 247.26984236 -131.86322017 236.65578363 -134 226 C-134.99 226 -135.98 226 -137 226 C-139.10320971 228.10320971 -138.38225817 232.58400043 -138.5234375 235.43359375 C-138.68070312 236.28050781 -138.83796875 237.12742187 -139 238 C-142.73553557 240.49035705 -145.67477817 240.62475426 -150 240 C-163.2599384 234.31716926 -170.20680274 221.06319505 -175.48925781 208.328125 C-180.91311517 194.40294564 -183.32956972 180.22984234 -183.4375 165.3125 C-183.44765137 164.32121094 -183.45780273 163.32992187 -183.46826172 162.30859375 C-183.37770097 154.7780213 -182.24900607 147.7273444 -177.75 141.5 C-175 139 -175 139 -171.625 137.75 C-167.30908479 138.04764932 -165.78590324 138.93036417 -162.75390625 141.89453125 C-156.61077884 149.2690205 -153.01599686 157.77885685 -150.12866211 166.83154297 C-149.41717909 169.0575174 -149.41717909 169.0575174 -148 172 C-145.96636928 172.74320999 -145.96636928 172.74320999 -144 173 C-144.00222061 172.43862335 -144.00444122 171.8772467 -144.00672913 171.29885864 C-144.02916601 165.3595647 -144.04406331 159.42028314 -144.05493164 153.48095703 C-144.05990455 151.27587392 -144.06668524 149.070794 -144.07543945 146.86572266 C-144.11667797 136.19707466 -144.14653707 125.53055081 -143.6484375 114.87109375 C-143.60802086 113.81723984 -143.60802086 113.81723984 -143.56678772 112.74209595 C-143.18758061 105.98856846 -140.8205088 100.39406379 -138.03320312 94.31347656 C-135.82531605 89.36972941 -133.83740089 84.33317506 -131.8125 79.3125 C-131.17066772 77.76260376 -131.17066772 77.76260376 -130.51586914 76.18139648 C-126.64546978 66.65361809 -124.04505599 57.16357525 -122.9375 46.9375 C-122.22181146 40.33271719 -122.22181146 40.33271719 -120 37 C-118.89011719 37.48597656 -117.78023438 37.97195312 -116.63671875 38.47265625 C-111.6704725 40.32530956 -107.07117604 40.49509251 -101.8125 40.4375 C-100.89428467 40.43427734 -99.97606934 40.43105469 -99.0300293 40.42773438 C-91.38113737 40.271895 -85.15469396 38.7209702 -78 36 C-77.34 36 -76.68 36 -76 36 C-76 35.34 -76 34.68 -76 34 C-76.721875 33.7525 -77.44375 33.505 -78.1875 33.25 C-83.21448106 31.01578619 -86.79024623 28.08243367 -89 23 C-89.52616321 19.67444417 -89.81077706 16.36033836 -90 13 C-86.92376519 14.36946418 -84.88419639 15.95444612 -82.5 18.3125 C-72.00778202 27.6238595 -56.25836635 30.58577401 -42.578125 30.23828125 C-39.50027523 29.95381332 -36.82532225 29.25569878 -34 28 C-34.40992188 27.50371094 -34.81984375 27.00742188 -35.2421875 26.49609375 C-38.76054568 22.06026897 -40.84356739 18.55087651 -42 13 C-41.05125 13.845625 -40.1025 14.69125 -39.125 15.5625 C-24.61945699 27.90826397 -10.99560336 32.43597188 8 31 C11.79006113 30.2836368 15.37588746 29.31501276 19 28 C16.76102314 25.69105511 14.5836508 23.46362584 12.0625 21.4609375 C5.5798601 16.27973667 2.00891665 10.50132042 0.1875 2.375 C0.125625 1.59125 0.06375 0.8075 0 0 Z " fill="#FBDBC0" transform="translate(498,187)"></path>
  <path d="M0 0 C4.3909434 3.62288535 8.35783909 7.33823069 12.125 11.625 C30.74790227 32.31133673 54.00528197 50.602981 82.83081055 52.38037109 C87.01634142 52.54757106 91.19529528 52.56319442 95.38354492 52.52148438 C97.93309876 52.50003702 100.47982737 52.52142191 103.02929688 52.546875 C136.23912749 52.60639333 157.88011132 37.78521942 180.8125 15.3125 C184.99697891 11.0564041 189.13523415 6.6448288 192.578125 1.76171875 C193.04734375 1.18035156 193.5165625 0.59898437 194 0 C194.66 0 195.32 0 196 0 C196.02505615 1.21357178 196.0501123 2.42714355 196.07592773 3.67749023 C196.17149193 8.26431384 196.27132205 12.85103711 196.37231445 17.43774414 C196.41510957 19.40712098 196.45681171 21.37652194 196.49731445 23.34594727 C196.5630308 44.75289171 196.5630308 44.75289171 199.0625 65.9375 C200.16345581 72.62792378 200.33046036 79.29616764 200.4375 86.0625 C200.47174072 87.15103271 200.50598145 88.23956543 200.54125977 89.36108398 C200.58527293 97.57914802 198.61754736 103.67107451 195 111 C194.6913501 111.66781494 194.3827002 112.33562988 194.06469727 113.02368164 C181.89157298 138.94242955 161.44305462 161.59863867 142.234375 182.55078125 C139.70281128 185.32576456 137.2314386 188.14770423 134.76953125 190.984375 C132.74885044 193.28607764 130.68687382 195.54764379 128.625 197.8125 C125.51471149 201.25378205 122.53521688 204.76321298 119.625 208.375 C115.83000618 213.07197299 111.84235305 217.53540841 107.71728516 221.94091797 C105.30771394 224.52329414 103.05307674 227.12433291 101 230 C97.56069417 228.51873643 95.33045662 226.57572554 92.69921875 223.9296875 C91.88646484 223.115 91.07371094 222.3003125 90.23632812 221.4609375 C89.39521484 220.60757813 88.55410156 219.75421875 87.6875 218.875 C86.85798828 218.04484375 86.02847656 217.2146875 85.17382812 216.359375 C80.85320168 212.00805744 76.68554045 207.58213869 72.68676758 202.93408203 C69.72089227 199.53334904 66.60273379 196.2754633 63.5 193 C58.54321052 187.76726553 53.7141447 182.45247115 49 177 C48.25943359 176.15066895 48.25943359 176.15066895 47.50390625 175.28417969 C40.51977402 167.27156224 33.79991455 159.09592111 27.30712891 150.68066406 C26.05772831 149.07422519 24.78523112 147.48582968 23.51171875 145.8984375 C16.24409538 136.74146388 9.9082012 127.08492956 4 117 C3.30318115 115.82727539 3.30318115 115.82727539 2.59228516 114.63085938 C-7.20888719 97.73594274 -6.10075742 82.97975462 -3.14404297 64.2199707 C-1.29253528 51.62337913 -1.38997356 38.86737541 -1.14068604 26.16053772 C-1.01576522 20.03849793 -0.76663245 13.92707485 -0.4375 7.8125 C-0.39351074 6.99378418 -0.34952148 6.17506836 -0.30419922 5.33154297 C-0.2061839 3.55417211 -0.10375295 1.77704516 0 0 Z " fill="#FBDBC0" transform="translate(404,525)"></path>
  <path d="M0 0 C1.52101347 3.04202693 0.62598322 5.48061847 0.125 8.8125 C-0.88205692 15.86528351 -1.61239802 22.88221816 -2 30 C-2.07734375 31.0003125 -2.1546875 32.000625 -2.234375 33.03125 C-3.28297519 56.10045426 8.77666699 77.07212805 22 95 C22.50112305 95.68513672 23.00224609 96.37027344 23.51855469 97.07617188 C36.33214464 114.55739503 50.30876456 131.0736607 65 147 C64.34 147.33 63.68 147.66 63 148 C61.41681456 147.40667815 59.85777774 146.74852016 58.3125 146.0625 C49.89357484 142.89159249 40.44062385 142.41515793 31.875 145.4375 C22.43935157 149.88239223 14.16742127 156.80101415 5.97021484 163.17578125 C1.80788986 166.40571515 -2.41460739 169.54285027 -6.6875 172.625 C-7.58843384 173.28230103 -7.58843384 173.28230103 -8.50756836 173.95288086 C-12.76346204 177 -12.76346204 177 -15 177 C-31.23614003 146.47087501 -40.69225509 112.39343368 -44 78 C-44.21269531 76.80503906 -44.42539062 75.61007812 -44.64453125 74.37890625 C-45.72365533 65.00968876 -42.83084861 60.36115707 -37.1875 53.125 C-35.12267228 50.54926446 -33.03881642 47.9905449 -30.94482422 45.43847656 C-28.14951913 41.93364262 -25.66595777 38.27311679 -23.25 34.5 C-22.81550537 33.82622314 -22.38101074 33.15244629 -21.93334961 32.45825195 C-17.91786373 26.10046175 -14.35884319 19.48207588 -10.96582031 12.7734375 C-8.05292224 7.21347428 -5.00107252 3.81239395 0 0 Z " fill="#ED473E" transform="translate(390,573)"></path>
  <path d="M0 0 C5.59971396 3.52914577 7.76956626 8.67115706 10.6875 14.375 C15.50542902 23.49539625 20.68198084 31.8584439 27 40 C27.68707031 40.88558594 28.37414062 41.77117188 29.08203125 42.68359375 C31.78274554 46.0981063 34.4361249 49.428183 37.49609375 52.53125 C42.10928344 57.42511738 44.59832353 60.90180716 44.75 67.75 C44.56751629 70.5265598 44.32104002 73.2407113 44 76 C43.91637207 76.8357959 43.83274414 77.6715918 43.74658203 78.53271484 C40.32661329 112.21422513 32.19632209 146.55129842 15 176 C9.30577046 172.95756865 4.41095321 169.33682179 -0.625 165.3125 C-19.85734294 149.09620855 -19.85734294 149.09620855 -43.546875 143.5859375 C-52.0999925 145.02961657 -59.19447567 149.05338213 -66.46875 153.609375 C-69 155 -69 155 -72 155 C-70.82244141 153.83984375 -70.82244141 153.83984375 -69.62109375 152.65625 C-62.05643723 145.17846605 -62.05643723 145.17846605 -54.94140625 137.27734375 C-53.38768045 135.45476399 -51.81170047 133.66325461 -50.21484375 131.87890625 C-23.05182163 101.33899683 3.77284571 67.08438094 2.14306641 24.40087891 C1.85962938 19.64436057 1.20956249 14.96379379 0.4375 10.26171875 C-0.02614044 6.80511371 -0.07063883 3.48337722 0 0 Z " fill="#ED473E" transform="translate(613,574)"></path>
  <path d="M 0 0 C 4.391 3.623 8.358 7.338 12.125 11.625 C 30.718 32.278 54.048 50.706 82.863 52.364 C 87.075 52.515 91.28 52.518 95.493 52.467 C 98.065 52.437 100.634 52.446 103.205 52.459 C 112.539 52.446 120.032 50.615 129.159 48.636 C 133.02 47.839 140.449 44.033 144.364 43.587 C 140.481 48.562 136.227 52.574 131.364 56.587 C 130.867 57.001 128.006 61.829 127.495 62.256 C 110.229 76.581 92.492 86.16 69.401 84.309 C 47.732 81.519 28.788 67.177 11.621 54.834 C 8.386 52.57 5.055 50.478 1.68 48.428 C -0.403 46.657 -0.663 45.685 -1 43 C -1.09 41.429 -1.131 39.855 -1.133 38.281 C -1.135 37.358 -1.137 36.434 -1.139 35.483 C -1.134 34.498 -1.13 33.514 -1.125 32.5 C -1.123 31.489 -1.121 30.479 -1.119 29.437 C -1.064 19.606 -0.602 9.811 0 0 Z" fill="#F6C9AA" transform="translate(404,525)"></path>
  <path d="M0 0 C15.5592635 8.23507017 28.70825537 20.5305434 41 33 C37.65711135 33 35.48478672 32.24583062 32.3359375 31.13671875 C31.21316406 30.74419922 30.09039062 30.35167969 28.93359375 29.94726562 C27.75925781 29.53154297 26.58492188 29.11582031 25.375 28.6875 C20.91749442 27.12263102 16.45922639 25.55995871 12 24 C11.13149414 23.69400879 10.26298828 23.38801758 9.36816406 23.07275391 C-2.4170477 19.0084618 -15.01213681 17.8026136 -26.5 23.234375 C-28.2325 24.10835937 -28.2325 24.10835937 -30 25 C-32.60693106 26.26955423 -35.21887284 27.5281013 -37.83349609 28.78173828 C-39.64871566 29.65521546 -41.45925868 30.53850213 -43.26416016 31.43310547 C-61.37634235 40.26873313 -61.37634235 40.26873313 -69.984375 37.3203125 C-71.68276804 36.60698742 -73.34566914 35.8102845 -75 35 C-75 34.34 -75 33.68 -75 33 C-74.443125 32.7525 -73.88625 32.505 -73.3125 32.25 C-70.59322857 30.78012355 -68.40844203 28.93737911 -66 27 C-64.4016426 25.84607698 -62.79712907 24.70064717 -61.1875 23.5625 C-57.04926845 20.5827505 -53.09431187 17.45848812 -49.17236328 14.20019531 C-33.55192006 1.22848453 -20.40763128 -8.91108131 0 0 Z " fill="#D0322F" transform="translate(450,731)"></path>
  <path d="M0 0 C5.09210588 3.55013015 9.83081512 7.52940682 14.59765625 11.5 C18.56604217 14.79200915 22.6267285 17.93253147 26.7734375 20.99609375 C27.35955811 21.43646973 27.94567871 21.8768457 28.54956055 22.33056641 C32.24975362 25.04191026 35.96554039 27.10046016 40.171875 28.93920898 C41.7734375 29.93359375 41.7734375 29.93359375 42.7734375 32.93359375 C35.81889601 33.52228521 29.9009759 31.37009068 23.3359375 29.24609375 C21.60790894 28.70069946 21.60790894 28.70069946 19.8449707 28.14428711 C16.48498497 27.08265682 13.12899999 26.00910778 9.7734375 24.93359375 C7.34405741 24.16289386 4.91376906 23.39528322 2.48217773 22.6315918 C0.60244354 22.04058466 -1.2750473 21.44245536 -3.15234375 20.84375 C-25.17633166 14.32330631 -46.17562917 24.36024785 -65.31616211 34.58300781 C-70.15036567 37.23378453 -74.72171032 40.12962109 -79.1484375 43.42578125 C-81.44700298 45.09353741 -83.7119566 46.60967872 -86.2265625 47.93359375 C-86.8865625 47.60359375 -87.5465625 47.27359375 -88.2265625 46.93359375 C-87.38351562 46.11375 -86.54046875 45.29390625 -85.671875 44.44921875 C-84.56483934 43.36094641 -83.45808311 42.27238977 -82.3515625 41.18359375 C-81.79597656 40.64476562 -81.24039062 40.1059375 -80.66796875 39.55078125 C-80.13300781 39.02226563 -79.59804688 38.49375 -79.046875 37.94921875 C-78.55461426 37.46743164 -78.06235352 36.98564453 -77.55517578 36.48925781 C-76.13196285 34.96083421 -76.13196285 34.96083421 -75.2800293 32.92749023 C-74.02329275 30.54886512 -72.74023938 29.56076374 -70.55078125 28.015625 C-69.81182617 27.48799561 -69.07287109 26.96036621 -68.31152344 26.41674805 C-67.52036133 25.86543213 -66.72919922 25.31411621 -65.9140625 24.74609375 C-65.10098633 24.17093018 -64.28791016 23.5957666 -63.45019531 23.00317383 C-61.80789764 21.84362881 -60.16290016 20.68789752 -58.51513672 19.53613281 C-56.54635809 18.15752571 -54.58892437 16.76518186 -52.63671875 15.36328125 C-45.09939817 10.0154172 -37.3500282 5.31690106 -29.2265625 0.93359375 C-28.42605469 0.47597656 -27.62554688 0.01835938 -26.80078125 -0.453125 C-18.31404719 -4.87491514 -8.30781052 -4.74539986 0 0 Z " fill="#CF322F" transform="translate(586.2265625,732.06640625)"></path>
</svg>